<!DOCTYPE svg PUBLIC "-//W3C//DTD SVG 1.1//EN" "http://www.w3.org/Graphics/SVG/1.1/DTD/svg11.dtd">
<!-- Uploaded to: SVG Repo, www.svgrepo.com, Transformed by: SVG Repo Mixer Tools -->
<svg fill="#00ff62" width="800px" height="800px" viewBox="0 0 1024 1024" xmlns="http://www.w3.org/2000/svg" stroke="#00ff62">
<g id="SVGRepo_bgCarrier" stroke-width="0"/>
<g id="SVGRepo_tracerCarrier" stroke-linecap="round" stroke-linejoin="round"/>
<g id="SVGRepo_iconCarrier">
<path d="M429.811 577.1l-80.485-86.309c-21.425-22.976-57.42-24.233-80.396-2.807s-24.233 57.42-2.807 80.396l81.839 87.762-.158.152 43.493 45.038c19.643 20.341 52.056 20.907 72.397 1.264l35.686-34.462 8.195-7.642-.133-.143 251.802-243.163c22.607-21.832 23.236-57.857 1.405-80.464s-57.857-23.236-80.464-1.405L429.812 577.1zM512 1024C229.23 1024 0 794.77 0 512S229.23 0 512 0s512 229.23 512 512-229.23 512-512 512z"/>
</g>
</svg>